<mxfile host="app.diagrams.net" agent="Mozilla/5.0 (Windows NT 10.0; Win64; x64; rv:144.0) Gecko/20100101 Firefox/144.0" version="28.2.8">
  <diagram name="Page-1" id="EYg3MqegUCzYYS_CXkTB">
    <mxGraphModel dx="858" dy="404" grid="1" gridSize="10" guides="1" tooltips="1" connect="1" arrows="1" fold="1" page="1" pageScale="1" pageWidth="827" pageHeight="1169" math="0" shadow="0">
      <root>
        <mxCell id="0" />
        <mxCell id="1" parent="0" />
        <mxCell id="DrM0CufQLxGyzozMeJKn-111" value="&lt;&lt;abstract&gt;&gt;&#xa;AbstractTraining" style="swimlane;fontStyle=1;align=center;verticalAlign=top;childLayout=stackLayout;horizontal=1;startSize=46.857142857142854;horizontalStack=0;resizeParent=1;resizeParentMax=0;resizeLast=0;collapsible=0;marginBottom=0;" vertex="1" parent="1">
          <mxGeometry x="110" y="1140" width="271" height="333.8571428571429" as="geometry" />
        </mxCell>
        <mxCell id="DrM0CufQLxGyzozMeJKn-112" value="-int id" style="text;strokeColor=none;fillColor=none;align=left;verticalAlign=top;spacingLeft=4;spacingRight=4;overflow=hidden;rotatable=0;points=[[0,0.5],[1,0.5]];portConstraint=eastwest;" vertex="1" parent="DrM0CufQLxGyzozMeJKn-111">
          <mxGeometry y="46.857142857142854" width="271" height="31" as="geometry" />
        </mxCell>
        <mxCell id="DrM0CufQLxGyzozMeJKn-113" value="-String title" style="text;strokeColor=none;fillColor=none;align=left;verticalAlign=top;spacingLeft=4;spacingRight=4;overflow=hidden;rotatable=0;points=[[0,0.5],[1,0.5]];portConstraint=eastwest;" vertex="1" parent="DrM0CufQLxGyzozMeJKn-111">
          <mxGeometry y="77.85714285714286" width="271" height="31" as="geometry" />
        </mxCell>
        <mxCell id="DrM0CufQLxGyzozMeJKn-114" value="-String description" style="text;strokeColor=none;fillColor=none;align=left;verticalAlign=top;spacingLeft=4;spacingRight=4;overflow=hidden;rotatable=0;points=[[0,0.5],[1,0.5]];portConstraint=eastwest;" vertex="1" parent="DrM0CufQLxGyzozMeJKn-111">
          <mxGeometry y="108.85714285714286" width="271" height="31" as="geometry" />
        </mxCell>
        <mxCell id="DrM0CufQLxGyzozMeJKn-115" value="-Date startDate" style="text;strokeColor=none;fillColor=none;align=left;verticalAlign=top;spacingLeft=4;spacingRight=4;overflow=hidden;rotatable=0;points=[[0,0.5],[1,0.5]];portConstraint=eastwest;" vertex="1" parent="DrM0CufQLxGyzozMeJKn-111">
          <mxGeometry y="139.85714285714286" width="271" height="31" as="geometry" />
        </mxCell>
        <mxCell id="DrM0CufQLxGyzozMeJKn-116" value="-Date endDate" style="text;strokeColor=none;fillColor=none;align=left;verticalAlign=top;spacingLeft=4;spacingRight=4;overflow=hidden;rotatable=0;points=[[0,0.5],[1,0.5]];portConstraint=eastwest;" vertex="1" parent="DrM0CufQLxGyzozMeJKn-111">
          <mxGeometry y="170.85714285714286" width="271" height="31" as="geometry" />
        </mxCell>
        <mxCell id="DrM0CufQLxGyzozMeJKn-117" style="line;strokeWidth=1;fillColor=none;align=left;verticalAlign=middle;spacingTop=-1;spacingLeft=3;spacingRight=3;rotatable=0;labelPosition=right;points=[];portConstraint=eastwest;strokeColor=inherit;" vertex="1" parent="DrM0CufQLxGyzozMeJKn-111">
          <mxGeometry y="201.85714285714286" width="271" height="8" as="geometry" />
        </mxCell>
        <mxCell id="DrM0CufQLxGyzozMeJKn-118" value="+Collection getDates()" style="text;strokeColor=none;fillColor=none;align=left;verticalAlign=top;spacingLeft=4;spacingRight=4;overflow=hidden;rotatable=0;points=[[0,0.5],[1,0.5]];portConstraint=eastwest;" vertex="1" parent="DrM0CufQLxGyzozMeJKn-111">
          <mxGeometry y="209.85714285714286" width="271" height="31" as="geometry" />
        </mxCell>
        <mxCell id="DrM0CufQLxGyzozMeJKn-119" value="+String getLocation()" style="text;strokeColor=none;fillColor=none;align=left;verticalAlign=top;spacingLeft=4;spacingRight=4;overflow=hidden;rotatable=0;points=[[0,0.5],[1,0.5]];portConstraint=eastwest;" vertex="1" parent="DrM0CufQLxGyzozMeJKn-111">
          <mxGeometry y="240.85714285714286" width="271" height="31" as="geometry" />
        </mxCell>
        <mxCell id="DrM0CufQLxGyzozMeJKn-120" value="+String getTitle()" style="text;strokeColor=none;fillColor=none;align=left;verticalAlign=top;spacingLeft=4;spacingRight=4;overflow=hidden;rotatable=0;points=[[0,0.5],[1,0.5]];portConstraint=eastwest;" vertex="1" parent="DrM0CufQLxGyzozMeJKn-111">
          <mxGeometry y="271.8571428571429" width="271" height="31" as="geometry" />
        </mxCell>
        <mxCell id="DrM0CufQLxGyzozMeJKn-121" value="+void setTitle(String title)" style="text;strokeColor=none;fillColor=none;align=left;verticalAlign=top;spacingLeft=4;spacingRight=4;overflow=hidden;rotatable=0;points=[[0,0.5],[1,0.5]];portConstraint=eastwest;" vertex="1" parent="DrM0CufQLxGyzozMeJKn-111">
          <mxGeometry y="302.8571428571429" width="271" height="31" as="geometry" />
        </mxCell>
        <mxCell id="DrM0CufQLxGyzozMeJKn-122" value="Training" style="swimlane;fontStyle=1;align=center;verticalAlign=top;childLayout=stackLayout;horizontal=1;startSize=29.818181818181817;horizontalStack=0;resizeParent=1;resizeParentMax=0;resizeLast=0;collapsible=0;marginBottom=0;" vertex="1" parent="1">
          <mxGeometry x="126" y="1526" width="240" height="217.8181818181818" as="geometry" />
        </mxCell>
        <mxCell id="DrM0CufQLxGyzozMeJKn-123" value="-int id" style="text;strokeColor=none;fillColor=none;align=left;verticalAlign=top;spacingLeft=4;spacingRight=4;overflow=hidden;rotatable=0;points=[[0,0.5],[1,0.5]];portConstraint=eastwest;" vertex="1" parent="DrM0CufQLxGyzozMeJKn-122">
          <mxGeometry y="29.818181818181817" width="240" height="30" as="geometry" />
        </mxCell>
        <mxCell id="DrM0CufQLxGyzozMeJKn-124" value="-String title" style="text;strokeColor=none;fillColor=none;align=left;verticalAlign=top;spacingLeft=4;spacingRight=4;overflow=hidden;rotatable=0;points=[[0,0.5],[1,0.5]];portConstraint=eastwest;" vertex="1" parent="DrM0CufQLxGyzozMeJKn-122">
          <mxGeometry y="59.81818181818181" width="240" height="30" as="geometry" />
        </mxCell>
        <mxCell id="DrM0CufQLxGyzozMeJKn-125" value="-String description" style="text;strokeColor=none;fillColor=none;align=left;verticalAlign=top;spacingLeft=4;spacingRight=4;overflow=hidden;rotatable=0;points=[[0,0.5],[1,0.5]];portConstraint=eastwest;" vertex="1" parent="DrM0CufQLxGyzozMeJKn-122">
          <mxGeometry y="89.81818181818181" width="240" height="30" as="geometry" />
        </mxCell>
        <mxCell id="DrM0CufQLxGyzozMeJKn-126" value="-Date startDate" style="text;strokeColor=none;fillColor=none;align=left;verticalAlign=top;spacingLeft=4;spacingRight=4;overflow=hidden;rotatable=0;points=[[0,0.5],[1,0.5]];portConstraint=eastwest;" vertex="1" parent="DrM0CufQLxGyzozMeJKn-122">
          <mxGeometry y="119.81818181818181" width="240" height="30" as="geometry" />
        </mxCell>
        <mxCell id="DrM0CufQLxGyzozMeJKn-127" value="-Date endDate" style="text;strokeColor=none;fillColor=none;align=left;verticalAlign=top;spacingLeft=4;spacingRight=4;overflow=hidden;rotatable=0;points=[[0,0.5],[1,0.5]];portConstraint=eastwest;" vertex="1" parent="DrM0CufQLxGyzozMeJKn-122">
          <mxGeometry y="149.8181818181818" width="240" height="30" as="geometry" />
        </mxCell>
        <mxCell id="DrM0CufQLxGyzozMeJKn-128" value="-String location" style="text;strokeColor=none;fillColor=none;align=left;verticalAlign=top;spacingLeft=4;spacingRight=4;overflow=hidden;rotatable=0;points=[[0,0.5],[1,0.5]];portConstraint=eastwest;" vertex="1" parent="DrM0CufQLxGyzozMeJKn-122">
          <mxGeometry y="179.8181818181818" width="240" height="30" as="geometry" />
        </mxCell>
        <mxCell id="DrM0CufQLxGyzozMeJKn-129" style="line;strokeWidth=1;fillColor=none;align=left;verticalAlign=middle;spacingTop=-1;spacingLeft=3;spacingRight=3;rotatable=0;labelPosition=right;points=[];portConstraint=eastwest;strokeColor=inherit;" vertex="1" parent="DrM0CufQLxGyzozMeJKn-122">
          <mxGeometry y="209.8181818181818" width="240" height="8" as="geometry" />
        </mxCell>
        <mxCell id="DrM0CufQLxGyzozMeJKn-134" value="Certification" style="swimlane;fontStyle=1;align=center;verticalAlign=top;childLayout=stackLayout;horizontal=1;startSize=38.857142857142854;horizontalStack=0;resizeParent=1;resizeParentMax=0;resizeLast=0;collapsible=0;marginBottom=0;" vertex="1" parent="1">
          <mxGeometry x="237" y="1910" width="162" height="135.85714285714286" as="geometry" />
        </mxCell>
        <mxCell id="DrM0CufQLxGyzozMeJKn-135" value="-int id" style="text;strokeColor=none;fillColor=none;align=left;verticalAlign=top;spacingLeft=4;spacingRight=4;overflow=hidden;rotatable=0;points=[[0,0.5],[1,0.5]];portConstraint=eastwest;" vertex="1" parent="DrM0CufQLxGyzozMeJKn-134">
          <mxGeometry y="38.857142857142854" width="162" height="39" as="geometry" />
        </mxCell>
        <mxCell id="DrM0CufQLxGyzozMeJKn-136" value="-String name" style="text;strokeColor=none;fillColor=none;align=left;verticalAlign=top;spacingLeft=4;spacingRight=4;overflow=hidden;rotatable=0;points=[[0,0.5],[1,0.5]];portConstraint=eastwest;" vertex="1" parent="DrM0CufQLxGyzozMeJKn-134">
          <mxGeometry y="77.85714285714286" width="162" height="39" as="geometry" />
        </mxCell>
        <mxCell id="DrM0CufQLxGyzozMeJKn-137" style="line;strokeWidth=1;fillColor=none;align=left;verticalAlign=middle;spacingTop=-1;spacingLeft=3;spacingRight=3;rotatable=0;labelPosition=right;points=[];portConstraint=eastwest;strokeColor=inherit;" vertex="1" parent="DrM0CufQLxGyzozMeJKn-134">
          <mxGeometry y="116.85714285714286" width="162" height="19" as="geometry" />
        </mxCell>
        <mxCell id="DrM0CufQLxGyzozMeJKn-138" value="&lt;&lt;interface&gt;&gt;&#xa;Activable" style="swimlane;fontStyle=1;align=center;verticalAlign=top;childLayout=stackLayout;horizontal=1;startSize=62.25;horizontalStack=0;resizeParent=1;resizeParentMax=0;resizeLast=0;collapsible=0;marginBottom=0;" vertex="1" parent="1">
          <mxGeometry x="20" y="1940" width="196" height="154.25" as="geometry" />
        </mxCell>
        <mxCell id="DrM0CufQLxGyzozMeJKn-139" style="line;strokeWidth=1;fillColor=none;align=left;verticalAlign=middle;spacingTop=-1;spacingLeft=3;spacingRight=3;rotatable=0;labelPosition=right;points=[];portConstraint=eastwest;strokeColor=inherit;" vertex="1" parent="DrM0CufQLxGyzozMeJKn-138">
          <mxGeometry y="62.25" width="196" height="8" as="geometry" />
        </mxCell>
        <mxCell id="DrM0CufQLxGyzozMeJKn-140" value="+void activate()" style="text;strokeColor=none;fillColor=none;align=left;verticalAlign=top;spacingLeft=4;spacingRight=4;overflow=hidden;rotatable=0;points=[[0,0.5],[1,0.5]];portConstraint=eastwest;" vertex="1" parent="DrM0CufQLxGyzozMeJKn-138">
          <mxGeometry y="70.25" width="196" height="42" as="geometry" />
        </mxCell>
        <mxCell id="DrM0CufQLxGyzozMeJKn-141" value="+void deactivate()" style="text;strokeColor=none;fillColor=none;align=left;verticalAlign=top;spacingLeft=4;spacingRight=4;overflow=hidden;rotatable=0;points=[[0,0.5],[1,0.5]];portConstraint=eastwest;" vertex="1" parent="DrM0CufQLxGyzozMeJKn-138">
          <mxGeometry y="112.25" width="196" height="42" as="geometry" />
        </mxCell>
        <mxCell id="DrM0CufQLxGyzozMeJKn-143" value="" style="curved=1;startArrow=block;startSize=16;startFill=0;endArrow=none;exitX=0.5;exitY=1;entryX=0.5;entryY=0;rounded=0;" edge="1" parent="1" source="DrM0CufQLxGyzozMeJKn-111" target="DrM0CufQLxGyzozMeJKn-122">
          <mxGeometry relative="1" as="geometry">
            <Array as="points" />
          </mxGeometry>
        </mxCell>
        <mxCell id="DrM0CufQLxGyzozMeJKn-144" value="" style="curved=1;startArrow=none;endArrow=circle;endFill=0;exitX=0.22;exitY=1;rounded=0;" edge="1" parent="1" source="DrM0CufQLxGyzozMeJKn-122">
          <mxGeometry relative="1" as="geometry">
            <Array as="points">
              <mxPoint x="163" y="1898" />
            </Array>
            <mxPoint x="150" y="1940" as="targetPoint" />
          </mxGeometry>
        </mxCell>
        <mxCell id="DrM0CufQLxGyzozMeJKn-145" value="provides" style="curved=1;startArrow=diamondThin;startSize=14;startFill=0;endArrow=none;exitX=0.78;exitY=1;entryX=0.5;entryY=0;rounded=0;" edge="1" parent="1" source="DrM0CufQLxGyzozMeJKn-122" target="DrM0CufQLxGyzozMeJKn-134">
          <mxGeometry relative="1" as="geometry">
            <Array as="points">
              <mxPoint x="328" y="1898" />
            </Array>
          </mxGeometry>
        </mxCell>
        <mxCell id="DrM0CufQLxGyzozMeJKn-146" value="1..*" style="edgeLabel;resizable=0;labelBackgroundColor=none;fontSize=12;align=right;verticalAlign=top;" vertex="1" parent="DrM0CufQLxGyzozMeJKn-145">
          <mxGeometry x="-1" relative="1" as="geometry" />
        </mxCell>
        <mxCell id="DrM0CufQLxGyzozMeJKn-147" value="0..1" style="edgeLabel;resizable=0;labelBackgroundColor=none;fontSize=12;align=left;verticalAlign=bottom;" vertex="1" parent="DrM0CufQLxGyzozMeJKn-145">
          <mxGeometry x="1" relative="1" as="geometry" />
        </mxCell>
      </root>
    </mxGraphModel>
  </diagram>
</mxfile>
